<svg width="4" height="16" viewBox="0 0 4 16" fill="none" xmlns="http://www.w3.org/2000/svg">
<path d="M1.66669 8.83334C2.12693 8.83334 2.50002 8.46025 2.50002 8.00001C2.50002 7.53977 2.12693 7.16668 1.66669 7.16668C1.20645 7.16668 0.833355 7.53977 0.833355 8.00001C0.833355 8.46025 1.20645 8.83334 1.66669 8.83334Z" stroke="#98A2B3" stroke-width="1.66667" stroke-linecap="round" stroke-linejoin="round"/>
<path d="M1.66669 3.00001C2.12693 3.00001 2.50002 2.62691 2.50002 2.16668C2.50002 1.70644 2.12693 1.33334 1.66669 1.33334C1.20645 1.33334 0.833355 1.70644 0.833355 2.16668C0.833355 2.62691 1.20645 3.00001 1.66669 3.00001Z" stroke="#98A2B3" stroke-width="1.66667" stroke-linecap="round" stroke-linejoin="round"/>
<path d="M1.66669 14.6667C2.12693 14.6667 2.50002 14.2936 2.50002 13.8333C2.50002 13.3731 2.12693 13 1.66669 13C1.20645 13 0.833355 13.3731 0.833355 13.8333C0.833355 14.2936 1.20645 14.6667 1.66669 14.6667Z" stroke="#98A2B3" stroke-width="1.66667" stroke-linecap="round" stroke-linejoin="round"/>
</svg>
